<svg width="20" height="23" viewBox="0 0 20 23" fill="none" xmlns="http://www.w3.org/2000/svg">
<path d="M18.8428 17.6164C18.5101 18.385 18.1163 19.0925 17.66 19.743C17.0381 20.6297 16.5288 21.2435 16.1364 21.5844C15.528 22.1439 14.8762 22.4304 14.1782 22.4467C13.6771 22.4467 13.0728 22.3041 12.3693 22.0149C11.6636 21.727 11.015 21.5844 10.422 21.5844C9.80003 21.5844 9.13299 21.727 8.4195 22.0149C7.70493 22.3041 7.12928 22.4549 6.68916 22.4698C6.01981 22.4983 5.35264 22.2036 4.68668 21.5844C4.26164 21.2137 3.72999 20.5781 3.09309 19.6778C2.40976 18.7163 1.84796 17.6014 1.40784 16.3303C0.936484 14.9574 0.700195 13.628 0.700195 12.3409C0.700195 10.8665 1.01878 9.59489 1.65689 8.52928C2.1584 7.67334 2.82557 6.99815 3.66059 6.50249C4.49562 6.00682 5.39786 5.75424 6.36949 5.73808C6.90114 5.73808 7.59833 5.90253 8.46472 6.22573C9.32867 6.55002 9.88341 6.71447 10.1266 6.71447C10.3085 6.71447 10.9247 6.52218 11.9694 6.13882C12.9573 5.7833 13.7911 5.63609 14.4742 5.69408C16.3251 5.84346 17.7157 6.5731 18.6405 7.88763C16.9851 8.89064 16.1662 10.2955 16.1825 12.0976C16.1975 13.5014 16.7067 14.6695 17.7076 15.597C18.1611 16.0275 18.6676 16.3602 19.2312 16.5965C19.109 16.9509 18.98 17.2904 18.8428 17.6164ZM14.5978 0.911805C14.5978 2.01206 14.1958 3.03936 13.3946 3.99022C12.4277 5.1206 11.2582 5.77379 9.99001 5.67072C9.97385 5.53873 9.96448 5.3998 9.96448 5.25382C9.96448 4.19758 10.4243 3.0672 11.2408 2.14295C11.6485 1.67499 12.167 1.28589 12.7957 0.975494C13.4231 0.66973 14.0166 0.500636 14.5747 0.47168C14.591 0.618766 14.5978 0.765862 14.5978 0.911791V0.911805Z" fill="#111827"/>
</svg>
