<svg width="24" height="25" viewBox="0 0 24 25" fill="none" xmlns="http://www.w3.org/2000/svg">
<g clip-path="url(#clip0_5685_31593)">
<path d="M23.7663 12.7474C23.7663 11.9317 23.7001 11.1116 23.559 10.3091H12.2402V14.9301H18.722C18.453 16.4204 17.5888 17.7388 16.3233 18.5766V21.5749H20.1903C22.4611 19.4849 23.7663 16.3984 23.7663 12.7474Z" fill="#4285F4"/>
<path d="M12.2401 24.472C15.4766 24.472 18.2059 23.4094 20.1945 21.5751L16.3276 18.5767C15.2517 19.3087 13.8627 19.7232 12.2445 19.7232C9.11388 19.7232 6.45946 17.6111 5.50705 14.7715H1.5166V17.8624C3.55371 21.9146 7.7029 24.472 12.2401 24.472Z" fill="#34A853"/>
<path d="M5.50277 14.7714C5.00011 13.281 5.00011 11.6672 5.50277 10.1769V7.08594H1.51674C-0.185266 10.4767 -0.185266 14.4716 1.51674 17.8623L5.50277 14.7714Z" fill="#FBBC04"/>
<path d="M12.2401 5.22085C13.9509 5.1944 15.6044 5.83816 16.8434 7.01986L20.2695 3.59381C18.1001 1.5567 15.2208 0.436725 12.2401 0.472C7.7029 0.472 3.55371 3.02941 1.5166 7.086L5.50264 10.1769C6.45064 7.33292 9.10947 5.22085 12.2401 5.22085Z" fill="#EA4335"/>
</g>
<defs>
<clipPath id="clip0_5685_31593">
<rect width="24" height="24" fill="white" transform="translate(0 0.471191)"/>
</clipPath>
</defs>
</svg>
