<svg width="136" height="72" viewBox="0 0 136 72" fill="none" xmlns="http://www.w3.org/2000/svg">
<path d="M57.3086 8.28076H58.5039L59.6992 8.48042L61.0938 8.94629L62.2891 9.61182L63.2188 10.3439L63.8828 10.9429L64.4141 11.4753L65.0117 12.2074L65.875 13.3388L66.8047 14.803L67.1367 15.6016L67.2695 15.6682L67.8008 14.4702L68.9961 12.6733L69.5938 11.9412L70.3242 11.1425L70.9883 10.5436L71.918 9.87804L72.8477 9.34561L74.1094 8.81319L74.9727 8.54697L76.3672 8.34731H77.4297L78.6914 8.54697L79.6211 8.87974L80.4844 9.47872L81.3477 10.2774L81.9453 11.2091L82.1445 11.8081L82.2109 12.2074V13.8712L81.9453 15.0692L81.3477 16.3337L80.8164 17.1323L80.2188 17.8644L79.6211 18.5299L79.0898 19.0624L78.3594 19.6614L77.4297 20.3269L76.1016 21.1921L74.375 22.1904L72.8477 22.989L71.3867 23.7211L71.7852 23.8542L72.3164 23.9208L84.0039 23.9873L89.3828 24.0539L90.1797 24.2535L90.5781 24.5197L91.1094 25.1187L91.375 25.8508V26.6494L91.1094 27.315L90.6445 27.8474L90.1133 28.1802L89.7148 28.3133H74.375L72.3164 28.2467V28.3798L72.1836 28.4464L73.9766 30.443L74.7734 31.175L77.2969 33.1051L77.7617 33.6375L77.8281 33.9703L77.5625 34.1699L76.168 34.2365L75.7695 34.4362L75.6367 35.0351L75.5039 36.6324L75.3711 37.0983L75.1055 37.1648L74.5078 36.7655L73.9766 36.2331L73.3789 35.501L72.6484 34.7024L72.0508 33.9703L71.3867 33.1716L70.7227 32.2399L69.9258 31.1085L68.8633 29.5778L68.2656 28.7126L67.4023 27.5146L67.1367 27.2484L67.3359 27.1153L67.0039 27.0488L66.8711 27.4481L66.1406 28.7791L65.2773 30.1102L64.4805 31.3747L63.8164 32.3065L63.0859 33.3713L62.2891 34.3696L61.8242 34.9686L61.2266 35.6341L60.8945 36.0334L60.3633 36.4993L59.7656 37.0983L59.5664 37.2314H59.3008L59.168 36.3662L59.0352 34.7024L58.8359 34.2365L56.9766 34.1034L56.7109 33.9703L56.8438 33.6375L57.1094 33.3048L57.8398 32.7058L58.8359 31.8406L59.7656 31.1085L61.0938 29.9105L61.957 29.0453L62.5547 28.2467H60.6289L53.7891 28.3133H45.2891L44.4258 28.0471L43.8945 27.6477L43.5625 27.1819L43.4297 26.6494V26.0505L43.5625 25.3849L43.9609 24.7194L44.4258 24.3201L45.0898 24.0539L46.6172 23.9873H61.0938L62.8203 23.7876L63.0859 23.6545L63.1523 23.5214L62.7539 23.3883L61.4922 22.6562L59.9648 21.8576L58.4375 20.9924L57.375 20.3269L56.1133 19.3951L55.3164 18.6631L54.1875 17.5317L53.5234 16.5999L52.9258 15.5351L52.6602 14.803L52.5273 14.0043V12.274L52.7266 11.2757L53.125 10.5436L53.5898 9.94459L54.1211 9.41217L55.0508 8.87974L55.9141 8.54697L56.7773 8.34731L57.3086 8.28076Z" fill="#8DD4DB"/>
<path d="M53.9219 43.8193H59.9648L61.293 43.9524L62.5547 44.2852L63.6172 44.6845L64.5469 45.217L65.3438 45.8159L66.1406 46.548L66.7383 47.147L67.4688 48.2118L68.0664 49.3432L68.4648 50.5412L68.7305 51.8057L68.8633 53.403V54.5344L68.6641 56.3313L68.3984 57.3296L67.8008 58.5941L67.2031 59.5259L66.4727 60.4576L65.6094 61.3228L64.7461 61.9883L63.75 62.5873L62.6211 63.1198L61.3594 63.5191L60.5625 63.6522L59.832 63.7187L58.0391 63.7853H53.7227L53.1914 63.6522L52.5938 63.2529L52.3945 62.9201L52.3281 62.6539V45.6163L52.3945 44.7511L52.7266 44.2187L53.3906 43.8859L53.9219 43.8193Z" fill="#8DD4DB"/>
<path d="M37.5195 43.8193H38.5156L39.1797 44.0855L39.7109 44.5514L40.3086 45.4832L40.9062 46.7477L41.7695 48.6777L43.0312 51.3398L44.0273 53.4695L44.625 54.8672L45.4883 56.7307L46.418 58.9935L47.1484 60.5907L47.6133 61.9883V62.8535L47.2148 63.3194L46.5508 63.6522L46.1523 63.7187H45.5547L44.8906 63.386L44.3594 62.787L43.7617 61.6556L43.2305 60.258L42.8984 59.3928L42.3672 59.1931L41.9023 59.1266H34.2656L33.3359 59.1931L33.0039 59.3928L32.0742 61.3228L31.543 62.4542L30.9453 63.3194L30.4805 63.6522L30.2148 63.7187H29.5508L28.8203 63.4525L28.2227 63.0532L28.0898 62.7204V62.1215L28.2891 61.4559L28.8867 60.0583L31.1445 55.1334L32.0078 53.2699L32.9375 51.3398L33.668 49.8091L34.6641 47.6129L35.4609 45.8825L35.9922 44.8842L36.5898 44.2187L37.2539 43.8859L37.5195 43.8193Z" fill="#8DD4DB"/>
<path d="M118.137 43.8867H119.066L119.73 44.0864L120.129 44.3526L120.66 44.9516L121.258 46.0164L122.32 48.4123L123.582 51.0079L124.445 52.9379L125.242 54.7349L125.84 56.0659L126.703 57.9294L127.766 60.2588L128.23 61.5233L128.297 61.7895V62.5882L128.031 63.054L127.434 63.4533L126.77 63.653H126.172L125.773 63.4533L125.309 62.9875L124.777 62.0557L123.648 59.3936L123.25 59.1939L122.918 59.1274L119.797 59.0608H114.418L113.82 59.1939L113.488 59.7264L112.559 61.6564L111.895 62.8544L111.43 63.3868L110.898 63.653H110.367L109.836 63.5199L109.172 63.1206L108.84 62.7878L108.773 62.2554L108.973 61.4568L109.57 60.1257L110.5 58.1956L111.695 55.467L112.758 53.1376L113.754 50.9414L115.082 48.2792L116.078 46.0164L116.676 44.9516L117.141 44.3526L117.672 44.0198L118.137 43.8867Z" fill="#8DD4DB"/>
<path d="M9.09766 43.8193H9.82812L10.5586 44.0855L10.8906 44.3518L11.0898 44.6845L11.1562 45.0173L11.2227 51.2067L11.2891 51.9388L11.4219 52.0719L19.9219 52.1385V44.9507L20.1211 44.4183L20.6523 43.9524L21.1172 43.8193H21.9805L22.6445 44.0855L23.043 44.4183L23.3086 44.8842V56.1317L23.2422 62.188L23.1094 62.9201L22.7773 63.3194L22.2461 63.5856L21.7812 63.7187H21.1836L20.5859 63.4525L20.1875 63.1863L19.9883 62.9201L19.9219 62.5873L19.8555 61.6556V55.4661H19.7227L19.6562 55.5992L19.5898 55.4661L18.8594 55.3996H12.75L11.5547 55.4661L11.1562 55.5327V59.7921L11.0898 62.5208L10.957 62.9866L10.4922 63.386L10.0938 63.5856H8.89844L8.30078 63.3194L7.96875 62.9866L7.76953 62.5208L7.70312 61.7887V45.4832L7.76953 44.7511L8.03516 44.3518L8.63281 43.9524L9.09766 43.8193Z" fill="#8DD4DB"/>
<path d="M75.7695 43.8193L85.4648 43.8859L86.5938 43.9524L87.2578 44.2852L87.5898 44.7511L87.7227 45.0838V45.8825L87.3906 46.4815L86.8594 46.9473L85.9961 47.0804L77.7617 47.147L77.4961 47.2801L77.4297 48.0122V51.7392L77.3633 52.1385L77.6953 52.0719L78.4922 52.1385L84.2695 52.205L84.9336 52.3381L85.332 52.6044L85.6641 53.1368L85.7305 53.403V54.0685L85.5313 54.6009L85.1992 55.0003L84.4688 55.2665L77.2969 55.333L77.3633 60.3911L78.0938 60.5242L86.0625 60.5907L86.7266 60.7904L87.125 61.0566L87.457 61.5225L87.5234 61.7221V62.5208L87.3242 63.0532L86.8594 63.5856L86.5938 63.7187L85.7969 63.7853H80.5508L75.1719 63.7187L74.5742 63.5856L74.1094 63.2529L74.043 63.1198L73.9766 61.7887V46.6146L74.043 44.7511L74.3086 44.3518L74.8398 43.9524L75.7695 43.8193Z" fill="#8DD4DB"/>
<path d="M56.0469 47.0142H59.5664L60.6289 47.1473L61.4922 47.4135L62.6211 48.0125L63.418 48.6114L64.0156 49.2104L64.6797 50.1422L65.2109 51.1405L65.4102 51.7394L65.6094 53.0705V53.8691L65.543 55.0671L65.3438 56.0654L65.0117 56.864L64.2813 58.062L63.5508 58.8606L62.8867 59.4596L61.8906 60.0586L60.8945 60.4579L60.2305 60.591L59.168 60.6576H56.1797L55.6484 60.4579V47.1473L56.0469 47.0142Z" fill="white"/>
<path d="M92.5039 43.7529H93.3008L93.8984 44.0191L94.4297 44.485L95.0938 45.4168L96.6875 47.9458L97.5508 49.3434L98.5469 50.8076L99.1445 51.5396L99.3438 51.6062L99.8086 50.9407L100.273 50.2086L101.734 48.0123L102.664 46.5482L103.461 45.2837L104.125 44.4185L104.723 44.0191L105.32 43.8195H105.984L106.516 44.0191L107.047 44.485L107.312 45.0174V45.5499L106.98 46.3485L106.184 47.613L105.387 48.7444L104.789 49.6762L102.531 53.0704L101.668 54.3349L101.137 55.2001L101.004 55.7325L100.938 61.7888L100.805 62.654L100.539 63.1865L100.008 63.5858L99.3438 63.7854L98.5469 63.6523L98.0156 63.253L97.75 62.9202L97.6172 62.3213L97.5508 61.3895L97.4844 56.5977L97.418 55.3332L97.0859 54.6676L95.6914 52.5379L94.8945 51.2734L94.0312 49.8758L91.7734 46.4816L91.3086 45.5499L91.2422 44.9509L91.375 44.485L91.707 44.0857L92.2383 43.8195L92.5039 43.7529Z" fill="#8DD4DB"/>
<path d="M76.3008 11.6748H77.2305L77.9609 11.941L78.5586 12.4069L78.8242 13.139V14.0707L78.5586 14.8028L78.1602 15.4683L77.4297 16.267L76.9648 16.7328L75.9023 17.5315L74.5078 18.3301L73.2461 18.9291L71.5859 19.5281L69.8594 20.0605L69.3945 20.1271L69.1289 19.9274V19.395L69.9258 17.4649L70.457 16.4001L71.2539 15.2021L71.7852 14.5366L72.3828 13.8711L73.0469 13.2721L74.1758 12.4734L75.2383 11.941L76.3008 11.6748Z" fill="white"/>
<path d="M57.3086 11.6748H58.5703L59.4336 11.941L60.4297 12.4734L61.3594 13.2055L61.957 13.8045L63.1523 15.2687L63.6836 16.1339L64.2148 17.1987L64.7461 18.4632L65.0781 19.395L65.2109 19.9274L64.8789 19.9939L62.8867 19.1953L61.0938 18.4632L59.832 17.8642L58.6367 17.1322L57.5078 16.3335L56.5781 15.4018L56.1797 14.7363L55.9141 13.8711L55.8477 13.0059L56.1133 12.3403L56.5781 11.941L57.3086 11.6748Z" fill="white"/>
<path d="M37.8516 48.6787L38.1172 48.7453L38.9805 50.4091L39.6445 52.0064L40.6406 54.3357L41.1055 55.4671V55.7999L40.7734 55.933L38.7813 55.9996H37.1211L35.0625 55.933L34.5977 55.7333L34.6641 55.2675L35.9922 52.206L36.9219 50.276L37.5195 49.2111L37.8516 48.6787Z" fill="white"/>
<path d="M118.602 48.8115L118.867 48.9446L119.398 50.0095L120.262 51.873L121.258 54.1358L121.656 55.2006L121.922 55.8662L120.129 55.9327H118.203L115.945 55.8662L115.348 55.6665L115.414 55.2006L116.277 53.3371L117.207 51.3405L118.336 49.1443L118.602 48.8115Z" fill="white"/>
<path d="M37.5195 43.8193H38.5156L39.1797 44.0855L39.7109 44.5514L40.3086 45.4832L40.9062 46.7477L41.7695 48.6777L43.0312 51.3398L44.0273 53.4695L44.625 54.8672L45.4883 56.7307L46.418 58.9935L47.1484 60.5907L47.6133 61.9883V62.8535L47.2148 63.3194L46.5508 63.6522L46.1523 63.7187H45.5547L45.6875 63.5856L46.5508 63.4525L47.082 63.1863L47.4141 62.787V62.1215L47.082 61.0566L46.6836 60.0583L45.9531 58.5276L45.3555 57.0634L44.6914 55.5327L43.6289 53.2033L42.7656 51.3398L42.168 50.0088L41.6367 48.9439L41.0391 47.5463L40.5742 46.548L40.043 45.4166L39.5117 44.618L38.9141 44.1521L38.4492 44.019H37.6523L36.9219 44.2852L36.3906 44.7511L35.7266 45.8825L34.7305 48.0787L33.8672 50.0088L32.6719 52.4047L30.9453 56.1317L30.3477 57.4627L28.6211 61.1897L28.3555 61.9218L28.2891 62.6539L28.4883 63.0532L28.9531 63.386L28.8203 63.4525L28.2227 63.0532L28.0898 62.7204V62.1215L28.2891 61.4559L28.8867 60.0583L31.1445 55.1334L32.0078 53.2699L32.9375 51.3398L33.668 49.8091L34.6641 47.6129L35.4609 45.8825L35.9922 44.8842L36.5898 44.2187L37.2539 43.8859L37.5195 43.8193Z" fill="#8DD4DB"/>
<path d="M118.137 43.8867H119.066L119.73 44.0864L120.129 44.3526L120.66 44.9516L121.258 46.0164L122.32 48.4123L123.582 51.0079L124.445 52.938L125.242 54.7349L125.84 56.0659L126.703 57.9294L127.766 60.2588L128.098 61.124L128.031 61.3237L127.898 61.124L127.035 59.1939L126.238 57.4636L125.641 56.1991L125.109 55.0011L123.383 51.141L122.453 49.211L121.59 47.3475L120.992 46.0164L120.395 44.9516L119.93 44.4191L119.266 44.1529L118.934 44.0864H118.336L117.605 44.286L117.074 44.7519L116.543 45.6837L115.813 47.2144L115.082 48.8117L114.484 50.0762L113.82 51.3407L113.09 53.0045L112.227 54.868L111.164 57.2639L110.566 58.595L109.504 60.7912L109.105 61.8561L109.039 62.1223V62.7213L109.371 63.1871L109.105 63.054L108.84 62.7878L108.773 62.2554L108.973 61.4568L109.57 60.1257L110.5 58.1957L111.695 55.467L112.758 53.1376L113.754 50.9414L115.082 48.2792L116.078 46.0164L116.676 44.9516L117.141 44.3526L117.672 44.0198L118.137 43.8867Z" fill="#8DD4DB"/>
<path d="M92.5039 43.7529H93.3008L93.8984 44.0191L94.4297 44.485L95.0938 45.4168L96.6875 47.9458L97.5508 49.3434L98.5469 50.8076L99.1445 51.5396L99.3438 51.6062L99.8086 50.9407L100.273 50.2086L101.734 48.0123L102.664 46.5482L103.461 45.2837L104.125 44.4185L104.723 44.0191L105.32 43.8195H105.984L106.516 44.0191L106.25 44.0857L105.852 43.9526L105.387 44.0191L104.656 44.2854L104.125 44.7512L103.66 45.4168L102.863 46.6813L101.867 48.212L100.207 50.741L99.6758 51.6062L99.4766 51.8059L99.2109 51.8724L98.8789 51.6728L98.0156 50.4748L97.2852 49.3434L96.1563 47.4799L95.2266 46.0823L94.5625 45.0174L94.0977 44.4185L93.7656 44.1522L93.1016 43.886L92.4375 43.9526L91.9063 44.2188L91.6406 44.5516L91.5742 44.7512V45.5499L92.1055 46.6147L93.3008 48.4117L93.168 48.5448L92.1055 47.014L91.5078 46.0157L91.2422 45.2837L91.3086 44.6181L91.707 44.0857L92.2383 43.8195L92.5039 43.7529Z" fill="#8DD4DB"/>
<path d="M118.535 48.5449L118.801 48.6115L119.133 49.0108L119.93 50.7412L120.66 52.3385L121.457 54.2019L122.055 55.7327L121.922 55.8658L121.457 54.934L121.059 53.8026L120.063 51.6064L119.199 49.7429L118.801 48.9442H118.535L117.539 50.8077L116.609 52.7378L115.746 54.6013L115.414 55.3333L115.348 55.6661L115.945 55.7992L118.203 55.8658V55.9323H115.613L115.016 55.7992L115.082 55.3999L115.613 54.4016L116.477 52.5381L117.141 51.1405L118.469 48.6115L118.535 48.5449Z" fill="#8DD4DB"/>
<path d="M37.7852 48.4121H38.1172L38.3828 48.7449L39.2461 50.6084L40.707 54.0691L40.5742 54.3353L38.9805 50.6084L38.1172 48.878V48.7449L37.8516 48.6783L37.7188 48.9445L37.0547 50.209L36.5234 51.2739L35.7266 52.9377L34.8633 54.9343L34.5977 55.733L35.0625 55.8661L37.1211 55.9326V55.9992H34.5313L34.332 55.9326L34.3984 55.3336L35.1953 53.6698L35.793 52.2722L37.0547 49.6766L37.6523 48.6118L37.7852 48.4121Z" fill="#8DD4DB"/>
<path d="M56.1797 12.1406L56.3125 12.2072L55.9805 12.7396L55.9141 13.0058L55.9805 13.871L56.3125 14.8693L56.7773 15.5348L57.5742 16.3335L58.6367 17.0656L59.6328 17.6645L60.6953 18.197L62.0234 18.7959L61.8242 18.8625L60.4961 18.3301L59.0352 17.598L57.8398 16.7328L57.043 16.1338L56.3789 15.4017L55.9805 14.7362L55.7148 13.871V12.9393L55.9805 12.3403L56.1797 12.1406Z" fill="#8DD4DB"/>
<path d="M92.5039 43.7529H93.3008L93.8984 44.0191L94.4297 44.485V44.6181L94.1641 44.485L93.7656 44.1522L93.1016 43.886L92.4375 43.9526L91.9063 44.2188L91.6406 44.5516L91.5742 44.7512V45.5499L92.1055 46.6147L93.3008 48.4117L93.168 48.5448L92.1055 47.014L91.5078 46.0157L91.2422 45.2837L91.3086 44.6181L91.707 44.0857L92.2383 43.8195L92.5039 43.7529Z" fill="#8DD4DB"/>
<path d="M106.848 44.3525L107.18 44.6853L107.312 45.0181V45.5505L106.98 46.3491L106.184 47.6136L105.387 48.745L104.789 49.6768L103.992 50.8747L102.863 52.6051L102.73 52.472L103.527 51.2741L104.258 50.1427L105.32 48.5454L105.785 47.8799L106.582 46.6153L107.047 45.6836V44.885L106.781 44.4191L106.848 44.3525Z" fill="#8DD4DB"/>
<path d="M117.539 50.542L117.605 50.6751L116.609 52.7382L115.746 54.6017L115.414 55.3338L115.348 55.6666L115.945 55.7997L118.203 55.8662V55.9328H115.613L115.016 55.7997L115.082 55.4004L115.613 54.4021L116.477 52.5386L117.141 51.141L117.539 50.542Z" fill="#8DD4DB"/>
<path d="M63.8164 10.9424L64.2813 11.3417L65.1445 12.34L66.0078 13.538L66.8047 14.8025L67.1367 15.6011L67.2695 15.6677L67.6016 14.869L67.7344 15.0687L67.668 15.4014L67.4023 15.9339L67.0703 16.0004L66.207 14.27L65.2773 12.8724L64.6797 12.0738L64.2813 11.6079V11.4748H64.1484L63.8164 11.0755V10.9424Z" fill="#8DD4DB"/>
<path d="M64.4141 45.2183L64.7461 45.3514L65.4102 45.8838L66.0742 46.4828L66.7383 47.1483L67.4688 48.2132L68.0664 49.3446L68.4648 50.5425L68.5313 51.0749L68.332 50.8753L67.9336 49.6773L67.2031 48.1466L66.5391 47.2814L65.9414 46.6159L65.1445 45.8838L64.4141 45.3514V45.2183Z" fill="#8DD4DB"/>
<path d="M33.0039 59.1934L33.1367 59.2599L32.8047 59.7923L32.0742 61.3231L31.543 62.4545L30.9453 63.3197L30.4805 63.6524L30.2148 63.719H29.5508L29.2852 63.5859L30.2148 63.5193L30.6797 63.3197L31.0781 62.8538L31.6094 61.8555L32.4727 59.9254L32.8047 59.3265L33.0039 59.1934Z" fill="#8DD4DB"/>
<path d="M22.3789 44.0195L22.7109 44.1526L23.043 44.4189L23.3086 44.8847V56.1322H23.2422L23.1758 45.0178L22.7773 44.4189L22.3789 44.1526V44.0195Z" fill="#8DD4DB"/>
<path d="M64.4141 17.3979L64.6133 17.6642L65.4766 19.7939L65.4102 20.1266L65.3438 20.1932H64.8789L63.6172 19.5942L63.5508 19.4611L63.8828 19.5277L64.8789 19.927H65.2109L65.0781 19.7273L64.8789 18.9952L64.3477 17.6642L64.4141 17.3979Z" fill="#8DD4DB"/>
<path d="M42.6328 59.1934L43.0313 59.2599L43.4297 60.0586L43.8945 61.3231L44.5586 62.7207L45.0898 63.3197L45.3555 63.4528V63.5859L44.957 63.4528L44.4922 62.9869L43.9609 62.0551L43.3633 60.6575L42.8984 59.393L42.6328 59.1934Z" fill="#8DD4DB"/>
<path d="M9.09766 43.8193H9.82813L10.5586 44.0855L10.8906 44.3518L11.0898 44.6845L11.1563 45.0173V49.8757H11.0898V45.1504H10.957L10.7578 44.4849L10.4922 44.2187L9.82813 44.019H9.09766L8.43359 44.2852L8.03516 44.618H7.90234L8.03516 44.3518L8.63281 43.9524L9.09766 43.8193Z" fill="#8DD4DB"/>
<path d="M110.234 58.8604H110.301L110.234 59.3262L109.504 60.7904L109.105 61.8552L109.039 62.1215V62.7204L109.371 63.1863L109.105 63.0532L108.84 62.787L108.773 62.2546L108.973 61.4559L109.57 60.1249L110.234 58.8604Z" fill="#8DD4DB"/>
<path d="M113.754 58.9941H114.418V59.0607L113.82 59.1938L113.488 59.7262L112.559 61.6563L111.895 62.8542L111.43 63.3866L111.297 63.3201L111.762 62.7211L112.625 61.1238L113.422 59.3935L113.621 59.0607L113.754 58.9941Z" fill="#8DD4DB"/>
<path d="M57.9727 34.1035H59.0352L59.168 34.3697L59.3672 35.7008L59.5 36.8987L59.832 36.8322V37.0319L59.5664 37.2315H59.3008L59.168 36.3663L59.0352 34.7025L58.8359 34.2366L57.9727 34.1701V34.1035Z" fill="#8DD4DB"/>
<path d="M55.582 54.3354H55.6484V60.4583L55.9805 60.5249L56.1797 60.5914L58.8359 60.658V60.7246H56.0469L55.6484 60.5914L55.582 60.5249V54.3354Z" fill="#8DD4DB"/>
<path d="M80.6172 9.67822L80.9492 9.87788L81.4141 10.3438L81.9453 11.2089L82.1445 11.8079L82.2109 12.2072V13.8711L82.0781 13.6049V12.9393L82.0117 12.0741L81.6797 11.1424L81.082 10.2772L80.6172 9.81133V9.67822Z" fill="#8DD4DB"/>
<path d="M72.3164 9.61182H72.4492V9.74492L71.3867 10.477L70.3906 11.3422L69.8594 11.8746L69.3281 12.5402L69.1953 12.407L70.0586 11.4088L70.5898 10.8763L71.5195 10.1442L72.3164 9.61182Z" fill="#8DD4DB"/>
<path d="M120.66 52.6714H120.793L121.457 54.2021L122.055 55.7328L121.922 55.8659L121.457 54.9342L121.059 53.8028L120.66 52.9376V52.6714Z" fill="#8DD4DB"/>
<path d="M75.8359 34.1699H76.168L75.9688 34.303L75.7031 34.5692L75.5039 36.6324L75.3711 37.0983L75.1055 37.1648L74.9727 37.0983L75.0391 36.8986L75.3047 36.6989L75.4375 34.6358L75.5703 34.303L75.8359 34.1699Z" fill="#8DD4DB"/>
<path d="M64.8789 57.1309L64.9453 57.264L64.3477 58.1957L63.75 58.8612L63.0859 59.4602L62.7539 59.6599L62.5547 59.5933L63.2852 59.0609L64.0156 58.3288L64.6797 57.3305L64.8789 57.1309Z" fill="#8DD4DB"/>
<path d="M90.3125 24.3862L90.5781 24.5193L91.1094 25.1183L91.375 25.8504V26.649L91.1758 27.1815L91.043 27.1149L91.1758 26.649V25.917L90.8438 25.1183L90.3125 24.4528V24.3862Z" fill="#8DD4DB"/>
<path d="M52.5273 12.2734H52.5938L52.7266 13.6711L52.9922 15.2683L52.8594 15.4014L52.6602 14.8025L52.5273 14.0038V12.2734Z" fill="#8DD4DB"/>
<path d="M91.7734 46.2827L91.9727 46.3493L92.6367 47.4141L93.3008 48.4124L93.168 48.5455L92.1055 47.0148L91.7734 46.4824V46.2827Z" fill="#8DD4DB"/>
<path d="M28.4883 60.9907L28.6211 61.0573L28.4219 61.7228L28.2891 62.3218L28.3555 62.8542L28.9531 63.4532L28.5547 63.3201L28.2227 63.0539L28.0898 62.7211V62.1221L28.2891 61.4566L28.4883 60.9907Z" fill="#8DD4DB"/>
<path d="M54.1211 9.41162L54.2539 9.47817L53.5898 10.2103L53.0586 11.142L52.793 11.8741L52.6602 11.741L52.793 11.142L53.2578 10.3434L53.8555 9.67783L54.1211 9.41162Z" fill="#8DD4DB"/>
<path d="M72.1836 23.1216L72.3164 23.2547L71.3867 23.7206L71.7852 23.8537L72.5156 23.9868V24.0533H71.7188L71.1211 23.9202L70.9219 23.7206L71.8516 23.2547L72.1836 23.1216Z" fill="#8DD4DB"/>
<path d="M71.7852 28.1797H72.3164V28.3793L72.1836 28.4459L73.3789 29.777V29.9766L72.1172 28.7121L71.7852 28.1797Z" fill="#8DD4DB"/>
<path d="M40.9727 54.9341L41.1055 55.0672L41.3047 55.5996V55.9324L41.1055 55.9989H38.7812V55.9324L40.7734 55.8658L41.1055 55.7993L40.9062 55.0006L40.9727 54.9341Z" fill="#8DD4DB"/>
<path d="M67.0703 26.7822L67.4023 27.0484L68.1328 28.1798L68 28.3129L67.3359 27.4478L67.1367 27.2481L67.3359 27.115L66.9375 27.0484L67.0703 26.7822Z" fill="#8DD4DB"/>
<path d="M62.4883 28.3799H62.6211L62.4883 28.7126L62.0234 29.2451L61.1602 30.0437L60.8945 30.3099L60.9609 30.0437L61.957 29.0454L62.4883 28.3799Z" fill="#8DD4DB"/>
<path d="M69.2617 18.7295H69.3945L69.1953 19.395V19.9274L69.3945 20.0606V20.1937L68.9297 20.1271L68.8633 20.0606L68.9297 19.4616L69.2617 18.7295Z" fill="#8DD4DB"/>
<path d="M87.125 44.2852H87.2578L87.5898 44.751L87.7227 45.0838V45.8824L87.457 46.4149L87.3906 46.1486L87.5234 45.7493V45.1503L87.1914 44.4848L87.125 44.2852Z" fill="#8DD4DB"/>
<path d="M124.18 60.2583L124.313 60.458L124.977 61.9887L124.844 62.1883L124.113 60.5245L124.18 60.2583Z" fill="#8DD4DB"/>
<path d="M42.6328 59.1934L43.0312 59.2599L43.4297 60.0586L43.5625 60.6575H43.3633L42.8984 59.393L42.6328 59.1934Z" fill="#8DD4DB"/>
<path d="M77.1641 33.0391L77.6289 33.4384L77.8281 33.7711L77.7617 34.0374L77.5625 34.1705H76.3008V34.1039L77.1641 34.0374L77.5625 33.9043L77.4961 33.5715L77.1641 33.1722V33.0391Z" fill="#8DD4DB"/>
<path d="M72.3164 9.61182H72.4492V9.74492L71.3867 10.477L70.7891 11.0094L70.6562 10.9429L70.9883 10.5436L71.918 9.87803L72.3164 9.61182Z" fill="#8DD4DB"/>
<path d="M43.4961 25.585L43.6289 25.7846L43.6953 27.1157L43.5625 27.1822L43.4297 26.6498V26.0508L43.4961 25.585Z" fill="#8DD4DB"/>
<path d="M121.391 54.4019H121.523L122.055 55.7329L121.922 55.866L121.457 54.9343L121.391 54.4019Z" fill="#8DD4DB"/>
<path d="M78.4258 12.2734H78.625L78.8906 12.7393L78.957 12.939V13.5379L78.8906 13.9373H78.8242L78.6914 12.8724L78.4258 12.2734Z" fill="#8DD4DB"/>
<path d="M68.3984 13.5381L68.5313 13.6046L68.3984 13.9374L67.9336 14.736L67.668 14.8691L67.8008 14.4698L68.3984 13.5381Z" fill="#8DD4DB"/>
<path d="M8.83203 43.8867H9.09766V44.0198L8.43359 44.286L8.03516 44.6188H7.90234L8.03516 44.3526L8.63281 43.9533L8.83203 43.8867Z" fill="#8DD4DB"/>
<path d="M82.0117 13.9375H82.1445L82.0781 14.603L81.7461 15.5348L81.6133 15.4017L81.8789 14.6696L82.0117 13.9375Z" fill="#8DD4DB"/>
<path d="M93.1016 43.7529L93.6992 43.886L94.2305 44.2854L94.4297 44.485V44.6181L94.1641 44.485L93.7656 44.1522L93.1016 43.886V43.7529Z" fill="#8DD4DB"/>
<path d="M75.3711 31.7075L75.8359 31.9737L76.8984 32.7724L76.6992 32.8389L75.3711 31.8406V31.7075Z" fill="#8DD4DB"/>
<path d="M92.5039 47.4136L92.7031 47.4801L93.3008 48.4119L93.168 48.545L92.5039 47.6132V47.4136Z" fill="#8DD4DB"/>
<path d="M40.1758 53.1372H40.3086L40.707 54.069L40.5742 54.3352L40.1758 53.4034V53.1372Z" fill="#8DD4DB"/>
<path d="M78.7578 14.0703L78.8906 14.3365L78.625 15.0021L78.4258 15.2683L78.293 15.2017L78.6914 14.3365L78.7578 14.0703Z" fill="#8DD4DB"/>
<path d="M57.9727 34.1035H59.0352L59.168 34.3697V34.769L59.0352 34.7025L58.8359 34.2366L57.9727 34.1701V34.1035Z" fill="#8DD4DB"/>
<path d="M121.059 53.603L121.125 53.7361H121.258L121.457 54.202L121.523 54.801L121.391 54.7344L121.059 53.8027V53.603Z" fill="#8DD4DB"/>
<path d="M87.2578 61.3237L87.457 61.5234L87.5234 61.723V62.5217L87.3906 62.4551L87.3242 61.5899L87.2578 61.3237Z" fill="#8DD4DB"/>
<path d="M62.4883 28.3799H62.6211L62.4883 28.7126L62.0898 29.1785L62.0234 28.9123L62.4883 28.3799Z" fill="#8DD4DB"/>
<path d="M64.4141 17.3979L64.6133 17.6642L64.7461 18.13L64.8125 18.4628H64.6797L64.3477 17.6642L64.4141 17.3979Z" fill="#8DD4DB"/>
<path d="M54.1211 9.41162L54.2539 9.47817L53.5898 10.2103L53.3906 10.4099L53.3242 10.2768L53.7891 9.74439L54.1211 9.41162Z" fill="#8DD4DB"/>
<path d="M95.293 51.8066H95.4922V52.0063H95.625L95.8906 52.5387L95.7578 52.6718L95.293 51.9397V51.8066Z" fill="#8DD4DB"/>
<path d="M52.7266 14.5361H52.8594L52.9922 15.2682L52.8594 15.4013L52.6602 14.8023L52.7266 14.5361Z" fill="#8DD4DB"/>
<path d="M63.3516 58.9941L63.4844 59.1272L62.7539 59.6597L62.5547 59.5931L63.2852 59.0607L63.3516 58.9941Z" fill="#8DD4DB"/>
<path d="M53.0586 44.0195L53.1914 44.0861L53.125 44.2192H52.9258L52.793 44.552L52.5273 44.6185L52.6602 44.2857L53.0586 44.0195Z" fill="#8DD4DB"/>
<path d="M56.7773 33.7041H57.043V33.8372L57.3086 34.0369L56.9766 34.1034L56.7109 33.9703L56.7773 33.7041Z" fill="#8DD4DB"/>
<path d="M56.1797 12.1406L56.3125 12.2072L55.9805 12.7396L55.9141 13.0058H55.7812L55.8477 12.5399L56.1797 12.1406Z" fill="#8DD4DB"/>
<path d="M71.2539 10.3433L71.3867 10.4764L70.7891 11.0088L70.6562 10.9422L70.9883 10.5429L71.2539 10.3433Z" fill="#8DD4DB"/>
<path d="M64.8789 57.1309L64.9453 57.264L64.6133 57.7964L64.4141 57.8629L64.5469 57.5302L64.7461 57.1974L64.8789 57.1309Z" fill="#8DD4DB"/>
<path d="M60.4297 30.5093L60.6953 30.5758L60.0312 31.1083V30.9086L60.4297 30.5093Z" fill="#8DD4DB"/>
</svg>
