<svg width="166" height="166" viewBox="0 0 166 166" fill="none" xmlns="http://www.w3.org/2000/svg">
<path d="M124.687 8.81609L125.643 10.7232L132.848 29.8854C133.414 31.3944 134.605 32.5852 136.114 33.1513L154.615 40.0922C162.734 43.1381 167.097 51.8136 164.933 60.0218L164.413 61.6554L155.806 80.6907C155.139 82.158 155.139 83.842 155.806 85.3093L163.98 103.299C167.567 111.194 164.517 120.413 157.183 124.688L155.276 125.643L136.114 132.849C134.605 133.415 133.414 134.606 132.848 136.115L125.907 154.616C122.861 162.734 114.186 167.097 105.978 164.934L104.344 164.413L85.3088 155.806C83.8415 155.139 82.1576 155.139 80.6902 155.806L62.7001 163.98C54.8055 167.567 45.586 164.518 41.3117 157.184L40.3565 155.277L33.1508 136.115C32.5847 134.606 31.394 133.415 29.8849 132.849L11.384 125.908C3.26522 122.862 -1.09757 114.186 1.06586 105.978L1.58638 104.345L10.1935 85.3093C10.8602 83.842 10.8602 82.158 10.1935 80.6907L2.01932 62.7006C-1.56775 54.8059 1.48177 45.5865 8.8156 41.3122L10.7227 40.357L29.8849 33.1513C31.394 32.5852 32.5847 31.3944 33.1508 29.8854L40.0917 11.3845C43.1376 3.26571 51.8131 -1.09708 60.0213 1.06635L61.6549 1.58687L80.6902 10.194C82.1576 10.8607 83.8415 10.8607 85.3088 10.194L103.299 2.01981C111.194 -1.56727 120.413 1.48225 124.687 8.81609ZM110.048 54.3239L70.2276 99.8332L55.697 85.3026C53.5168 83.1224 49.9822 83.1224 47.8021 85.3026C45.622 87.4827 45.622 91.0173 47.8021 93.1974L66.5521 111.947C68.8355 114.231 72.5743 114.106 74.7008 111.676L118.451 61.6761C120.481 59.3558 120.246 55.829 117.926 53.7987C115.605 51.7685 112.078 52.0036 110.048 54.3239Z" fill="#D8B4E2"/>
</svg>
